<svg version="1" xmlns="http://www.w3.org/2000/svg" width="348" height="348" viewBox="0 0 261.000000 261.000000"><path d="M119.8 4C96.3 9 80.5 17.4 64.4 33.4 50.3 47.5 41.8 61.8 36.6 80.5c-6.4 22.7-5.4 45 2.9 67.1 1.9 5 2.1 6.5 1.1 7.3-4 3.3-19.2 7.2-34.1 8.7-2.7.3-5.4.9-5.8 1.3-1.5 1.5 7.9 10 14.4 13 8.1 3.6 13.4 4.7 24 5 4.6.1 8.6.7 8.7 1.2.2.5 2.2 3.6 4.3 6.9 15.3 22.8 40.4 38.3 69.7 43 4 .7 12.9 1.2 19.8 1.3H154l.8 2.6c.4 1.4.7 6.5.7 11.3v8.6l3.2-1.3c7.6-3.2 13.7-9.6 18.8-19.8 3-5.9 3-5.9 11.5-9.1 19.4-7.4 34.2-19.3 45.9-37.2 2.8-4.2 5.2-8.2 5.4-8.7.1-.5 3.9 1.3 8.2 4 13.6 8.5 12.3 8.8 12-3-.3-14.5-2.1-22.9-7.2-33.1-1.7-3.4-2.3-5.8-1.9-8 1.6-8.3 2.8-28.4 1.8-29-.5-.3-2 .1-3.5.9s-2.7 1.2-2.7 1c0-.1 1.6-2.7 3.6-5.6 3.3-4.9 3.6-5.8 3-10.4-1.9-15.7-7.3-29.4-18-46-6.8-10.4-8.2-11.8-10.7-10.5-1 .6-1.9.7-1.9.2 0-.5-3.4-4.3-7.5-8.4-13.7-13.8-30.4-23.4-49.3-28.4-13.3-3.5-33.8-4.1-46.4-1.4z"/></svg>